<svg width="21" height="21" viewBox="0 0 21 21" fill="none" xmlns="http://www.w3.org/2000/svg">
<path d="M2.83307 2H7.32301L8.77022 5.61803L6.44534 7.16795C6.16714 7.35342 6.00004 7.66565 6.00004 8C6.00258 8.09363 6.00004 8.001 6.00004 8.001L6.00004 8.00205L6.00005 8.00429L6.00008 8.00933L6.00023 8.02167C6.00038 8.03089 6.00063 8.04208 6.00105 8.05519C6.0019 8.0814 6.00343 8.1153 6.00616 8.15636C6.01164 8.23846 6.02195 8.34944 6.04134 8.48517C6.0801 8.75646 6.15532 9.12811 6.30136 9.56623C6.59459 10.4459 7.17077 11.5849 8.29294 12.7071C9.4151 13.8293 10.5541 14.4054 11.4338 14.6987C11.8719 14.8447 12.2436 14.9199 12.5149 14.9587C12.6506 14.9781 12.7616 14.9884 12.8437 14.9939C12.8847 14.9966 12.9186 14.9981 12.9449 14.999C12.958 14.9994 12.9692 14.9997 12.9784 14.9998L12.9907 15L12.9958 15L12.998 15L12.999 15C12.999 15 13.1107 14.9939 13 15C13.3788 15 13.7251 14.786 13.8945 14.4472L14.5642 13.1078L19 13.8471V18.167C16.8889 18.4723 11.1874 18.7732 6.70715 14.2929C2.22685 9.81259 2.52776 4.1111 2.83307 2ZM8.07369 8.48609L9.87962 7.28213C10.6666 6.75751 10.9784 5.75338 10.6272 4.87525L9.17996 1.25722C8.87624 0.497902 8.14082 0 7.32301 0H2.78082C1.87231 0 1.01713 0.631162 0.867985 1.6169C0.528676 3.8595 0.0668283 10.481 5.29294 15.7071C10.519 20.9332 17.1405 20.4714 19.3831 20.1321C20.3689 19.9829 21 19.1277 21 18.2192V13.8471C21 12.8694 20.2932 12.0351 19.3288 11.8743L14.893 11.135C14.0269 10.9907 13.168 11.4281 12.7753 12.2134L12.4288 12.9064C12.3199 12.8796 12.1983 12.8453 12.0663 12.8013C11.446 12.5946 10.585 12.1707 9.70715 11.2929C8.82931 10.4151 8.40549 9.55407 8.19873 8.93377C8.14285 8.76616 8.10263 8.61545 8.07369 8.48609Z" fill="#0D0D0D"/>
</svg>
