<svg width="21" height="19" viewBox="0 0 21 19" fill="none" xmlns="http://www.w3.org/2000/svg">
<g clip-path="url(#clip0_7_929)">
<path fill-rule="evenodd" clip-rule="evenodd" d="M20.3548 4.04973C19.9621 3.57266 19.3513 3.28212 18.7187 3.28212H5.43402L5.01956 1.74751C4.77957 0.855953 3.95065 0.233765 2.99082 0.233765H0.765764C0.394859 0.233765 0.0895996 0.523997 0.0895996 0.876509C0.0895996 1.22902 0.394859 1.51956 0.765764 1.51956H2.99082C3.31804 1.51956 3.60159 1.72665 3.68882 2.03774L6.35017 12.117C6.59016 13.0089 7.41908 13.6311 8.37879 13.6311H17.0827C18.0425 13.6311 18.8933 13.0089 19.1114 12.117L20.7474 5.72946C20.9001 5.14869 20.7693 4.5265 20.3548 4.04973ZM19.4167 5.43892L17.7807 11.8268C17.6935 12.1379 17.4099 12.3453 17.0827 12.3453H8.37879C8.05157 12.3453 7.76802 12.1379 7.68079 11.8268L5.78296 4.58878H18.7187C18.9368 4.58878 19.155 4.69248 19.2859 4.85845C19.4167 5.02443 19.4822 5.23183 19.4167 5.43892ZM8.83693 14.4607C7.59355 14.4607 6.56832 15.4354 6.56832 16.6175C6.56832 17.7995 7.59355 18.7742 8.83693 18.7742C10.0803 18.7742 11.1055 17.7995 11.1055 16.6175C11.1055 15.4354 10.0803 14.4607 8.83693 14.4607ZM8.83693 17.4676C8.33524 17.4676 7.94262 17.0945 7.94262 16.6175C7.94262 16.1404 8.33524 15.767 8.83693 15.767C9.33862 15.767 9.73137 16.1404 9.73137 16.6175C9.73137 17.0737 9.31691 17.4676 8.83693 17.4676ZM16.341 14.4607C15.0976 14.4607 14.0724 15.4354 14.0724 16.6175C14.0724 17.7995 15.0976 18.7742 16.341 18.7742C17.5844 18.7742 18.6096 17.7995 18.6096 16.6175C18.5879 15.4354 17.5844 14.4607 16.341 14.4607ZM16.341 17.4676C15.8393 17.4676 15.4466 17.0945 15.4466 16.6175C15.4466 16.1404 15.8393 15.767 16.341 15.767C16.8427 15.767 17.2354 16.1404 17.2354 16.6175C17.2354 17.0737 16.8209 17.4676 16.341 17.4676Z" fill="white"/>
</g>
<defs>
<clipPath id="clip0_7_929">
<rect width="20.7195" height="18.5405" fill="white" transform="translate(0.0895996 0.233765)"/>
</clipPath>
</defs>
</svg>
