<svg width="17" height="17" viewBox="0 0 17 17" fill="none" xmlns="http://www.w3.org/2000/svg">
<path d="M6.8 1.7C3.98335 1.7 1.7 3.98335 1.7 6.8C1.7 9.61665 3.98335 11.9 6.8 11.9C9.61665 11.9 11.9 9.61665 11.9 6.8C11.9 3.98335 9.61665 1.7 6.8 1.7ZM0 6.8C0 3.04446 3.04446 0 6.8 0C10.5555 0 13.6 3.04446 13.6 6.8C13.6 8.3714 13.067 9.81832 12.1719 10.9698L16.751 15.549C17.083 15.8809 17.083 16.4191 16.751 16.751C16.4191 17.083 15.8809 17.083 15.549 16.751L10.9698 12.1719C9.81832 13.067 8.3714 13.6 6.8 13.6C3.04446 13.6 0 10.5555 0 6.8Z" fill="#333333"/>
</svg>
